<!-- SVG Repo icon, background carrier removed so it recolors cleanly in both modes via ColorOverlay -->
<svg fill="#1e2326" width="256px" height="256px" viewBox="-2.4 -2.4 28.80 28.80" xmlns="http://www.w3.org/2000/svg">
<g id="SVGRepo_iconCarrier">
<path d="M18,6H14.41l2.3-2.29a1,1,0,1,0-1.42-1.42L12,5.54l-1.17-2a1,1,0,1,0-1.74,1L10,6H6A3,3,0,0,0,3,9v8a3,3,0,0,0,3,3v1a1,1,0,0,0,2,0V20h8v1a1,1,0,0,0,2,0V20a3,3,0,0,0,3-3V9A3,3,0,0,0,18,6Zm1,11a1,1,0,0,1-1,1H6a1,1,0,0,1-1-1V9A1,1,0,0,1,6,8H18a1,1,0,0,1,1,1Z"/>
</g>
</svg>
